#!OML:ASF F:\VICON\USERDATA\INSTALL\rory3\rory3.ASF
:FULLY-SPECIFIED
:DEGREES
62
root -0.2524428632540999 18.170909060628787 32.03285140534977 0.6155450705498318 2.514643153068321 -5.390505781486445
lfemur -20.271499263316905 1.9999200460072042 -14.803781850123352
ltibia 83.59387895198269
lfoot 9.434975314901191 -5.475065545304362
ltoes -1.2740431001098544
rfemur -12.295188172970276 2.161199578791778 33.45490306418063
rtibia 33.9989032373598
rfoot -7.596143442082741 -2.5152052992543945
rtoes 9.646689120499921
lowerback 13.295423749816743 0.24068202362883795 4.267818357298413
upperback -0.3549087324783231 1.1134816202806714 3.313962822849433
thorax -7.881860095457309 0.500276259374706 0.8666092675764402
lowerneck -17.168873076070106 -2.955357321494558 -3.5273900551544246
upperneck 18.93202957461046 -3.4851504543810483 2.1022179259750344
head 8.831728208875552 -1.5859531119204122 0.8986056835158104
lclavicle -2.2689769777591264e-15 6.795951622460875e-16
lhumerus -41.694771881386615 -8.453669999520748 91.94738475717651
lradius 68.70066593132135
lwrist 19.63758339825664
lhand -26.00220086163439 12.264550428189038
lfingers 7.125019999999999
lthumb 0.4480219410115814 41.97429189605376
rclavicle -2.2611863707241793e-15 6.85092674737807e-16
rhumerus -35.759657185862444 -3.42015232754721 -87.4370288480924
rradius 63.893104455143735
rwrist -0.18416423253480874
rhand -16.388816510216255 30.970968808071166
rfingers 7.125019999999999
rthumb 9.68978041458075 1.3058512161169176
63
root -0.24402130649137 18.156973046153112 32.99811030714471 0.9428314259710149 1.512047832714343 -5.745813334784691
lfemur -26.302463779297717 2.4730414913214767 -14.323296296578832
ltibia 81.66865580719193
lfoot 5.0473636846884435 -3.1528306868435574
ltoes -4.733041828921839
rfemur -9.236681524317566 2.876795107936914 33.674011754968305
rtibia 33.43421684906691
rfoot -9.985620279029177 -2.3281504494646676
rtoes 8.156737498806146
lowerback 13.122035181499642 0.8272854156211333 5.050422091735805
upperback -0.44112081932664093 2.052319228080548 3.0706200388824243
thorax -7.9237078248015935 0.9231622177656691 -0.07717073501454574
lowerneck -17.11253840550443 -3.008916382005388 -3.37562308838174
upperneck 19.11281197430972 -3.565059180355301 2.092610860260587
head 8.872864185660609 -1.6297466406736116 0.8767841362439266
lclavicle -2.2669024602052294e-15 6.81052842457273e-16
lhumerus -43.91845599127113 -7.816606195775196 91.8124978031355
lradius 67.54380095746345
lwrist 20.217063131584247
lhand -26.15196138727484 12.118727830771173
lfingers 7.125019999999999
lthumb 0.36994360272471677 41.876843473233485
rclavicle -2.259613735051725e-15 6.861952501322754e-16
rhumerus -34.69382146026789 -1.808276670504784 -88.57183075334429
rradius 65.76671171014458
rwrist -1.8526303341163655
rhand -16.422267860972354 30.478786126617415
rfingers 7.125019999999999
rthumb 9.52403967018267 0.7723163454210816
64
root -0.22693238302230723 18.011407950883623 34.00600277872403 1.3591435142718222 0.5470588979958133 -6.168001564797118
lfemur -31.02423903145466 1.7412672239357776 -13.592079827409734
ltibia 74.82231719715932
lfoot 2.041485133355963 -1.0749928115338054
ltoes -7.0104338128396
rfemur -6.497409219973973 3.5955067935284655 34.2738154658471
rtibia 33.335875671010925
rfoot -11.900752174924477 -2.2306816054008163
rtoes 7.438694129020035
lowerback 13.094232122719912 1.321997586560049 5.914752814790603
upperback -0.445794507556201 2.890858588727646 2.9177606191425367
thorax -7.930885436737731 1.258523931828661 -1.0163665921894103
lowerneck -17.175794667933467 -3.083480966502895 -3.2231544598631245
upperneck 19.050387878905642 -3.6952490483672595 2.078601957694198
head 8.863971956958109 -1.682299474533713 0.8501157947002556
lclavicle -2.266512272313832e-15 6.813312697841482e-16
lhumerus -45.958589870329554 -7.1547428872600465 91.66086438103733
lradius 66.57863320569705
lwrist 20.917215184566004
lhand -26.44732683210045 11.550896229738502
lfingers 7.125019999999999
lthumb 0.16286762633794571 41.44036469212989
rclavicle -2.259759225296734e-15 6.860933335134077e-16
rhumerus -33.88657235634638 -0.29098264102628324 -89.55781707902578
rradius 67.74095995162027
rwrist -3.188644371446008
rhand -16.64853705634714 30.259350306471653
rfingers 7.125019999999999
rthumb 9.1700220834711 0.6467846950963435
65
root -0.20107848123870065 17.823323956237957 35.046431258914126 1.8877329532066442 -0.4119415286433603 -6.609558213661781
lfemur -33.56415030484817 -0.022230959316118737 -12.580474360431843
ltibia 63.797998533390114
lfoot 0.307098060087712 1.1090858858904205
ltoes -6.769232529171694
rfemur -3.5313429037387216 4.438582033194826 35.01681657478178
rtibia 33.1661200519068
rfoot -12.785280259692584 -2.058146113214013
rtoes 6.897605547505467
lowerback 13.028437827049524 1.7851829129775694 6.694599985383317
upperback -0.4458554463461215 3.651844592784169 2.812886042842589
thorax -7.886551740374681 1.5630642267713817 -1.8375894334617466
lowerneck -17.33589588099234 -3.148633405047918 -3.1040537513215387
upperneck 18.749151207709502 -3.82313995997356 2.149924926648825
head 8.78238323495011 -1.732967525147229 0.860899363467352
lclavicle -2.264336803948265e-15 6.828637069935159e-16
lhumerus -47.61179055861216 -6.134639922176434 91.3250395872022
lradius 65.47467256994678
lwrist 20.62356249565588
lhand -26.808263558464308 11.131544096208996
lfingers 7.125019999999999
lthumb -0.08296293576584962 41.1477621039696
rclavicle -2.259397668991543e-15 6.863468027979023e-16
rhumerus -33.15170773351707 0.701341563178282 -90.23965542689194
rradius 69.17469920652545
rwrist -4.270563488605196
rhand -16.92401734500851 30.338748382815343
rfingers 7.125019999999999
rthumb 8.817587968122703 0.7507141445003235
66
root -0.16420755143620314 17.65529301948304 36.137752006591256 2.6926846816216385 -1.414767483051146 -6.919220897310142
lfemur -33.65936463777638 -2.788458044819044 -11.384521313844079
ltibia 47.796541621503295
lfoot -0.3226734972902179 3.0359559609780233
ltoes -7.5359021770973555
rfemur -0.3069668181229659 5.276518003991045 35.56757295309214
rtibia 32.52942399131122
rfoot -12.735753213368953 -1.8801930250410432
rtoes 5.765029883309232
lowerback 12.50943012389534 2.216112076282352 7.223424624521055
upperback -0.5235525681129354 4.272958493058772 2.730661299190026
thorax -7.6664626141494585 1.8155406690520821 -2.3924268256905323
lowerneck -17.56892276937587 -3.185319138972037 -2.9586887991347335
upperneck 18.638170822448267 -3.9253346815469836 2.1497643653494203
head 8.775220897057885 -1.7795986670338808 0.8324656917667113
lclavicle -2.2631142078827366e-15 6.837246914678064e-16
lhumerus -48.948713016134995 -4.833526142402256 90.86970533793277
lradius 63.64259597260481
lwrist 20.289865623443387
lhand -26.93925989202763 10.94115056413179
lfingers 7.125019999999999
lthumb -0.23938846411194065 41.038630153178545
rclavicle -2.260202180630208e-15 6.857827980830472e-16
rhumerus -32.622036251357486 1.0010160999947004 -90.68155579131711
rradius 69.89159826227834
rwrist -4.827293238656856
rhand -17.32965406786003 30.65536956237082
rfingers 7.125019999999999
rthumb 8.468450730507595 1.168416856587237
